<svg width="116" height="469" viewBox="0 0 116 469" fill="none" xmlns="http://www.w3.org/2000/svg">
<path fill-rule="evenodd" clip-rule="evenodd" d="M58 0C90.0325 0 116 25.9675 116 58C116 79.8375 103.931 98.8548 86.0996 108.749C90.0973 110.186 95.6109 111.498 103.467 111.498C104.373 111.498 105.209 111.989 105.65 112.781C108.089 117.157 112.934 128.618 112.934 139.998C112.934 156.45 110.039 179.496 107.177 200.092C105.739 210.437 104.311 220.146 103.236 228.219C102.156 236.338 101.467 242.571 101.467 245.998C101.467 306.445 103.34 346.761 105.211 373.511C106.146 386.886 107.082 396.878 107.784 404.317C108.48 411.69 108.967 416.723 108.967 419.998C108.967 429.703 105.938 441.911 98.0693 451.747C90.1242 461.678 77.3925 468.998 58.4668 468.998C39.6069 468.998 26.8636 462.228 18.8857 452.523C10.9787 442.905 7.9668 430.669 7.9668 419.998C7.9668 416.723 8.45315 411.69 9.14941 404.317C9.852 396.878 10.7873 386.886 11.7227 373.511C13.5933 346.761 15.4668 306.445 15.4668 245.998C15.4668 242.571 14.7777 236.338 13.6973 228.219C12.6229 220.146 11.1947 210.437 9.75684 200.092C6.89427 179.496 4 156.45 4 139.998C4 128.618 8.84461 117.157 11.2832 112.781L11.3701 112.636C11.829 111.929 12.6168 111.498 13.4668 111.498C20.9555 111.498 26.316 110.307 30.2637 108.95C12.233 99.1139 0 79.9857 0 58C0 25.9675 25.9675 0 58 0Z" fill="black"/>
<path d="M106 58C106 84.5097 84.5097 106 58 106C31.4903 106 10 84.5097 10 58C10 31.4903 31.4903 10 58 10C84.5097 10 106 31.4903 106 58Z" fill="currentColor"/>
</svg>
